<svg width="480" height="480" fill="none" xmlns="http://www.w3.org/2000/svg"><path d="M457.328 205.44a54.955 54.955 0 0 1-16.368-19.256 56.39 56.39 0 0 1 4.584-25.912c4.48-14.032 9.112-28.528 2.32-40.272-6.888-11.88-21.904-15.144-36.424-18.28a55.661 55.661 0 0 1-24.36-8.8 55.661 55.661 0 0 1-8.752-24.344c-3.136-14.528-6.376-29.552-18.288-36.44-11.736-6.792-26.232-2.16-40.272 2.32a56.52 56.52 0 0 1-25.92 4.584A54.997 54.997 0 0 1 274.6 22.672C264.512 11.52 254.08 0 240 0c-14.08 0-24.512 11.52-34.56 22.672a54.955 54.955 0 0 1-19.256 16.368 56.538 56.538 0 0 1-25.912-4.584c-14.016-4.472-28.52-9.12-40.272-2.32-11.88 6.888-15.144 21.904-18.28 36.424a55.661 55.661 0 0 1-8.8 24.36 55.661 55.661 0 0 1-24.344 8.752c-14.528 3.136-29.552 6.376-36.44 18.288-6.792 11.736-2.16 26.24 2.32 40.272a56.37 56.37 0 0 1 4.584 25.92A54.997 54.997 0 0 1 22.672 205.4C11.52 215.488 0 225.92 0 240c0 14.08 11.52 24.512 22.672 34.6a54.955 54.955 0 0 1 16.368 19.256 56.39 56.39 0 0 1-4.584 25.912c-4.48 14.032-9.112 28.528-2.32 40.272 6.888 11.88 21.904 15.144 36.424 18.28a55.66 55.66 0 0 1 24.36 8.76 55.661 55.661 0 0 1 8.752 24.344c3.136 14.528 6.376 29.552 18.288 36.44 11.736 6.792 26.232 2.16 40.272-2.32a56.52 56.52 0 0 1 25.92-4.584 54.997 54.997 0 0 1 19.248 16.368C215.488 468.48 225.92 480 240 480c14.08 0 24.512-11.52 34.6-22.672a54.955 54.955 0 0 1 19.256-16.368 56.538 56.538 0 0 1 25.912 4.584c14.024 4.48 28.512 9.12 40.272 2.32 11.88-6.888 15.144-21.904 18.28-36.424a55.66 55.66 0 0 1 8.76-24.36 55.661 55.661 0 0 1 24.344-8.752c14.528-3.136 29.552-6.376 36.44-18.288 6.792-11.736 2.16-26.24-2.32-40.272a56.37 56.37 0 0 1-4.584-25.92 54.997 54.997 0 0 1 16.368-19.248C468.48 264.512 480 254.08 480 240c0-14.08-11.52-24.512-22.672-34.56zm-10.736 57.304a63.196 63.196 0 0 0-21.088 26.976 65.006 65.006 0 0 0 4.8 34.912c3.424 10.712 6.92 21.792 3.72 27.392-3.352 5.784-14.856 8.264-25.976 10.664-12.048 2.6-24.504 5.288-32.28 13.08a64.21 64.21 0 0 0-13.088 32.296c-2.4 11.112-4.88 22.616-10.648 25.952-5.624 3.24-16.696-.296-27.4-3.712a65.162 65.162 0 0 0-34.904-4.8 63.135 63.135 0 0 0-26.984 21.088C254.992 455.152 246.984 464 240 464s-14.992-8.848-22.744-17.408a63.196 63.196 0 0 0-26.976-21.088 31.577 31.577 0 0 0-8.112-1.008 92.34 92.34 0 0 0-26.8 5.776c-10.736 3.424-21.792 6.92-27.392 3.72-5.784-3.352-8.264-14.856-10.664-25.976-2.6-12.048-5.288-24.504-13.08-32.28a64.21 64.21 0 0 0-32.296-13.088c-11.112-2.4-22.616-4.88-25.952-10.648-3.24-5.6.288-16.656 3.712-27.368a64.997 64.997 0 0 0 4.8-34.904 63.135 63.135 0 0 0-21.088-26.984C24.848 254.992 16 246.984 16 240s8.848-14.992 17.44-22.744a63.196 63.196 0 0 0 21.088-26.976 65.006 65.006 0 0 0-4.8-34.912c-3.424-10.712-6.92-21.792-3.72-27.392 3.352-5.784 14.856-8.264 25.976-10.664 12.048-2.6 24.504-5.288 32.28-13.08a64.21 64.21 0 0 0 13.088-32.296c2.4-11.112 4.88-22.616 10.648-25.952 5.6-3.264 16.656.288 27.368 3.712 11.848 3.792 24.12 7.696 34.904 4.8a63.135 63.135 0 0 0 26.984-21.088C225.008 24.848 233.016 16 240 16s14.992 8.848 22.744 17.408a63.196 63.196 0 0 0 26.976 21.088 65.105 65.105 0 0 0 34.912-4.8c10.728-3.424 21.792-6.92 27.392-3.72 5.784 3.352 8.264 14.856 10.664 25.976 2.6 12.048 5.288 24.504 13.08 32.28a64.21 64.21 0 0 0 32.296 13.088c11.112 2.4 22.616 4.88 25.952 10.648 3.24 5.608-.288 16.688-3.712 27.4a64.997 64.997 0 0 0-4.8 34.904 63.135 63.135 0 0 0 21.088 26.984C455.152 225.008 464 233.016 464 240s-8.848 14.992-17.408 22.744z" fill="#000"/><path fill-rule="evenodd" clip-rule="evenodd" d="M451.426 263.692C459.161 256.534 467 249.282 467 241.5c0-11.81-9.445-23.875-18.592-35.557-6.879-8.788-13.589-17.359-15.984-25.443-2.217-7.488.302-16.528 2.797-25.479 2.867-10.285 5.701-20.455 1.279-28.021-4.823-8.252-17.571-13.646-29.977-18.895-9.862-4.172-19.507-8.253-24.781-13.605-5.235-5.313-8.768-14.321-12.344-23.442-4.446-11.338-8.961-22.85-16.898-27.655-8.796-5.325-21.147-3.716-33.496-2.108-9.752 1.27-19.504 2.54-27.504.396-7.177-1.924-14.51-7.92-21.977-14.023C260.047 19.922 250.357 12 240.5 12c-11.36 0-22.5 8.537-33.345 16.847-8.058 6.175-15.953 12.225-23.655 14.556-7.823 2.367-16.988.636-26.066-1.078-10.94-2.066-21.753-4.108-29.934 1.078-8.441 5.35-14.062 18.444-19.522 31.16-4.188 9.756-8.281 19.289-13.478 24.932-5.47 5.94-15.189 8.278-24.888 10.611C58.28 112.832 46.976 115.552 42.5 124c-3.904 7.368-1.081 20.405 1.698 33.246 2.367 10.933 4.703 21.725 2.831 28.754-2.055 7.714-9.308 15.407-16.685 23.232C21.266 218.861 12 228.69 12 239c0 10.363 9.36 20.853 18.481 31.076 7.33 8.216 14.506 16.258 16.548 23.924 2.04 7.658-.491 17.468-3.016 27.254-2.952 11.442-5.895 22.851-1.513 30.746 4.953 8.924 17.817 14.034 30.433 19.046 10.058 3.995 19.959 7.928 25.567 13.68 5.326 5.464 8.404 14.857 11.506 24.328 3.769 11.503 7.575 23.121 15.494 27.946 7.253 4.42 18.464 2.299 29.631.187 9.467-1.79 18.902-3.575 25.869-1.364 7.825 2.482 15.768 8.213 23.869 14.057 11.363 8.198 23.037 16.62 35.131 16.62 11.468 0 22.88-8.196 33.963-16.157 8.053-5.784 15.934-11.445 23.537-13.746 7.324-2.216 16.645-.552 25.962 1.112 11.169 1.994 22.331 3.987 30.038-.709 9.654-5.883 15.344-19.38 20.919-32.606 4.163-9.878 8.263-19.604 13.903-25.894 4.931-5.499 13.996-8.004 23.079-10.514 10.56-2.918 21.143-5.843 25.285-13.486 5.381-9.93 3.314-25.292 1.281-40.406-1.549-11.512-3.078-22.881-1.281-31.594 1.317-6.389 7.989-12.563 14.74-18.808zm-190.607-44.158L240.5 157l-20.319 62.534h-65.752l53.195 38.648-20.319 62.534 53.195-38.648 53.195 38.648-20.319-62.534 53.195-38.648h-65.752z" fill="#000"/></svg>