<svg width="480" height="480" viewBox="0 0 480 480" fill="none" xmlns="http://www.w3.org/2000/svg">
<path d="M457.328 205.44C450.45 200.38 444.846 193.787 440.96 186.184C440.423 177.306 441.994 168.427 445.544 160.272C450.024 146.24 454.656 131.744 447.864 120C440.976 108.12 425.96 104.856 411.44 101.72C402.741 100.743 394.395 97.728 387.08 92.92C382.291 85.605 379.293 77.265 378.328 68.576C375.192 54.048 371.952 39.024 360.04 32.136C348.304 25.344 333.808 29.976 319.768 34.456C311.609 38.003 302.728 39.573 293.848 39.04C286.249 35.152 279.659 29.548 274.6 22.672C264.512 11.52 254.08 0 240 0C225.92 0 215.488 11.52 205.44 22.672C200.38 29.55 193.787 35.154 186.184 39.04C177.306 39.571 168.429 38.001 160.272 34.456C146.256 29.984 131.752 25.336 120 32.136C108.12 39.024 104.856 54.04 101.72 68.56C100.743 77.259 97.728 85.605 92.92 92.92C85.605 97.709 77.265 100.707 68.576 101.672C54.048 104.808 39.024 108.048 32.136 119.96C25.344 131.696 29.976 146.2 34.456 160.232C38.008 168.389 39.579 177.271 39.04 186.152C35.152 193.751 29.548 200.341 22.672 205.4C11.52 215.488 0 225.92 0 240C0 254.08 11.52 264.512 22.672 274.6C29.55 279.66 35.154 286.253 39.04 293.856C39.577 302.734 38.006 311.613 34.456 319.768C29.976 333.8 25.344 348.296 32.136 360.04C39.024 371.92 54.04 375.184 68.56 378.32C77.256 379.285 85.601 382.286 92.92 387.08C97.709 394.395 100.707 402.735 101.672 411.424C104.808 425.952 108.048 440.976 119.96 447.864C131.696 454.656 146.192 450.024 160.232 445.544C168.391 441.997 177.272 440.427 186.152 440.96C193.751 444.848 200.341 450.452 205.4 457.328C215.488 468.48 225.92 480 240 480C254.08 480 264.512 468.48 274.6 457.328C279.66 450.45 286.253 444.846 293.856 440.96C302.734 440.429 311.611 441.999 319.768 445.544C333.792 450.024 348.28 454.664 360.04 447.864C371.92 440.976 375.184 425.96 378.32 411.44C379.285 402.744 382.286 394.399 387.08 387.08C394.395 382.291 402.735 379.293 411.424 378.328C425.952 375.192 440.976 371.952 447.864 360.04C454.656 348.304 450.024 333.8 445.544 319.768C441.992 311.611 440.421 302.729 440.96 293.848C444.848 286.249 450.452 279.659 457.328 274.6C468.48 264.512 480 254.08 480 240C480 225.92 468.48 215.488 457.328 205.44ZM446.592 262.744C437.214 269.624 429.917 278.959 425.504 289.72C423.859 301.577 425.52 313.659 430.304 324.632C433.728 335.344 437.224 346.424 434.024 352.024C430.672 357.808 419.168 360.288 408.048 362.688C396 365.288 383.544 367.976 375.768 375.768C368.512 385.121 363.982 396.298 362.68 408.064C360.28 419.176 357.8 430.68 352.032 434.016C346.408 437.256 335.336 433.72 324.632 430.304C313.659 425.529 301.583 423.869 289.728 425.504C278.962 429.913 269.624 437.211 262.744 446.592C254.992 455.152 246.984 464 240 464C233.016 464 225.008 455.152 217.256 446.592C210.376 437.214 201.041 429.917 190.28 425.504C187.631 424.818 184.904 424.479 182.168 424.496C172.997 425.077 163.964 427.024 155.368 430.272C144.632 433.696 133.576 437.192 127.976 433.992C122.192 430.64 119.712 419.136 117.312 408.016C114.712 395.968 112.024 383.512 104.232 375.736C94.879 368.48 83.702 363.95 71.936 362.648C60.824 360.248 49.32 357.768 45.984 352C42.744 346.4 46.272 335.344 49.696 324.632C54.479 313.661 56.14 301.583 54.496 289.728C50.087 278.962 42.789 269.624 33.408 262.744C24.848 254.992 16 246.984 16 240C16 233.016 24.848 225.008 33.44 217.256C42.818 210.376 50.115 201.041 54.528 190.28C56.173 178.423 54.512 166.341 49.728 155.368C46.304 144.656 42.808 133.576 46.008 127.976C49.36 122.192 60.864 119.712 71.984 117.312C84.032 114.712 96.488 112.024 104.264 104.232C111.52 94.879 116.05 83.702 117.352 71.936C119.752 60.824 122.232 49.32 128 45.984C133.6 42.72 144.656 46.272 155.368 49.696C167.216 53.488 179.488 57.392 190.272 54.496C201.038 50.087 210.376 42.789 217.256 33.408C225.008 24.848 233.016 16 240 16C246.984 16 254.992 24.848 262.744 33.408C269.624 42.786 278.959 50.083 289.72 54.496C301.577 56.136 313.657 54.475 324.632 49.696C335.36 46.272 346.424 42.776 352.024 45.976C357.808 49.328 360.288 60.832 362.688 71.952C365.288 84 367.976 96.456 375.768 104.232C385.121 111.488 396.298 116.018 408.064 117.32C419.176 119.72 430.68 122.2 434.016 127.968C437.256 133.576 433.728 144.656 430.304 155.368C425.521 166.339 423.86 178.417 425.504 190.272C429.913 201.038 437.211 210.376 446.592 217.256C455.152 225.008 464 233.016 464 240C464 246.984 455.152 254.992 446.592 262.744Z" fill="black"/>
<path fill-rule="evenodd" clip-rule="evenodd" d="M451.426 263.692C459.161 256.534 467 249.282 467 241.5C467 229.69 457.555 217.625 448.408 205.943C441.529 197.155 434.819 188.584 432.424 180.5C430.207 173.012 432.726 163.972 435.221 155.021C438.088 144.736 440.922 134.566 436.5 127C431.677 118.748 418.929 113.354 406.523 108.105C396.661 103.933 387.016 99.8522 381.742 94.5C376.507 89.1874 372.974 80.1789 369.398 71.0577C364.952 59.7197 360.437 48.2075 352.5 43.4026C343.704 38.0779 331.353 39.6866 319.004 41.2952C309.252 42.5655 299.5 43.8357 291.5 41.6908C284.323 39.7667 276.99 33.7717 269.523 27.6678C260.047 19.9216 250.357 12 240.5 12C229.14 12 218 20.5365 207.155 28.8469C199.097 35.0218 191.202 41.0718 183.5 43.4026C175.677 45.77 166.512 44.0391 157.434 42.3249C146.494 40.2589 135.681 38.217 127.5 43.4026C119.059 48.7529 113.438 61.847 107.978 74.563C103.79 84.3186 99.6969 93.8518 94.5 99.4949C89.0301 105.435 79.3115 107.773 69.6119 110.106C58.2809 112.832 46.9757 115.552 42.5 124C38.5965 131.368 41.4187 144.405 44.1984 157.246C46.5653 168.179 48.9013 178.971 47.029 186C44.9743 193.714 37.7211 201.407 30.3436 209.232C21.2658 218.861 12 228.69 12 239C12 249.363 21.3598 259.853 30.4813 270.076C37.8111 278.292 44.9871 286.334 47.029 294C49.0687 301.658 46.5378 311.468 44.0132 321.254C41.0613 332.696 38.1179 344.105 42.5 352C47.4528 360.924 60.3171 366.034 72.9333 371.046C82.9913 375.041 92.8916 378.974 98.5 384.726C103.826 390.19 106.904 399.583 110.006 409.054C113.775 420.557 117.581 432.175 125.5 437C132.753 441.42 143.964 439.299 155.131 437.187C164.598 435.397 174.033 433.612 181 435.823C188.825 438.305 196.768 444.036 204.869 449.88C216.232 458.078 227.906 466.5 240 466.5C251.468 466.5 262.88 458.304 273.963 450.343C282.016 444.559 289.897 438.898 297.5 436.597C304.824 434.381 314.145 436.045 323.462 437.709C334.631 439.703 345.793 441.696 353.5 437C363.154 431.117 368.844 417.62 374.419 404.394C378.582 394.516 382.682 384.79 388.322 378.5C393.253 373.001 402.318 370.496 411.401 367.986C421.961 365.068 432.544 362.143 436.686 354.5C442.067 344.57 440 329.208 437.967 314.094C436.418 302.582 434.889 291.213 436.686 282.5C438.003 276.111 444.675 269.937 451.426 263.692ZM260.819 219.534L240.5 157L220.181 219.534H154.429L207.624 258.182L187.305 320.716L240.5 282.068L293.695 320.716L273.376 258.182L326.571 219.534H260.819Z" fill="black"/>
</svg>
